<?xml version="1.0" standalone="no"?>
<!DOCTYPE svg PUBLIC "-//W3C//DTD SVG 20010904//EN"
 "http://www.w3.org/TR/2001/REC-SVG-20010904/DTD/svg10.dtd">
<svg version="1.0" xmlns="http://www.w3.org/2000/svg"
 width="432.000000pt" height="200.000000pt" viewBox="0 0 432.000000 200.000000"
 preserveAspectRatio="xMidYMid meet">

<g transform="translate(0.000000,200.000000) scale(0.100000,-0.100000)"
fill="#8B0000" stroke="none">
<path d="M326 1399 c-62 -15 -153 -68 -197 -116 -22 -24 -55 -74 -72 -111 -29
-61 -32 -76 -32 -163 0 -90 2 -99 37 -171 45 -90 103 -148 192 -189 196 -92
432 -7 528 189 31 62 33 73 33 172 0 99 -2 110 -33 172 -82 168 -275 259 -456
217z m-76 -279 l5 -75 67 -3 67 -3 3 78 c3 76 4 78 28 78 24 0 25 -2 28 -77
l3 -78 69 0 69 0 3 78 c3 75 4 77 28 77 l25 0 0 -185 0 -185 -25 0 c-24 0 -25
2 -28 78 l-3 77 -69 0 -69 0 -3 -77 c-3 -76 -4 -78 -28 -78 -24 0 -25 2 -28
78 l-3 78 -67 -3 -67 -3 -5 -75 c-4 -67 -7 -75 -26 -78 -30 -4 -34 18 -34 188
0 170 4 192 34 188 19 -3 22 -11 26 -78z"/>
<path d="M1849 1388 c-2 -7 -2 -124 1 -260 l5 -247 29 -30 c37 -38 102 -54
168 -40 94 21 129 100 114 263 -10 113 -47 144 -173 145 l-63 1 0 90 0 90 -39
0 c-23 0 -40 -5 -42 -12z m215 -264 c12 -12 16 -37 16 -104 0 -49 -3 -95 -6
-104 -9 -24 -66 -39 -100 -26 -16 6 -32 17 -36 23 -4 7 -8 60 -8 120 l0 107
59 0 c41 0 65 -5 75 -16z"/>
<path d="M3180 1335 c-9 -10 -11 -71 -8 -227 4 -235 10 -265 65 -286 85 -34
147 -22 141 26 -3 24 -8 28 -47 33 -63 8 -71 25 -71 141 l0 98 43 0 c54 0 80
18 75 51 -3 22 -8 24 -60 27 l-58 3 0 62 c0 36 -5 68 -12 75 -16 16 -53 15
-68 -3z"/>
<path d="M931 1206 c-9 -11 -12 -55 -9 -164 3 -161 10 -183 65 -219 23 -15 50
-18 183 -17 170 1 197 8 234 57 19 25 21 45 24 178 4 160 -1 179 -42 179 -41
0 -46 -16 -46 -166 0 -136 -1 -144 -22 -158 -27 -19 -72 -21 -87 -3 -6 8 -12
75 -13 168 l-3 154 -28 3 c-53 6 -57 -6 -57 -173 0 -130 -2 -154 -16 -159 -26
-10 -59 -7 -80 8 -17 13 -20 31 -24 168 l-5 153 -31 3 c-18 2 -36 -3 -43 -12z"/>
<path d="M1585 1209 c-36 -11 -55 -26 -78 -59 -26 -38 -24 -233 3 -277 29 -49
71 -66 149 -61 100 5 163 59 116 98 -13 11 -23 9 -59 -8 -43 -22 -91 -28 -112
-14 -15 10 -37 53 -30 59 3 3 34 7 68 7 76 2 121 24 138 66 17 41 8 124 -16
151 -39 44 -111 59 -179 38z m85 -69 c18 0 40 -33 40 -60 0 -38 -32 -60 -88
-60 -50 0 -59 14 -46 68 9 37 46 66 72 57 8 -3 17 -5 22 -5z"/>
<path d="M2314 1210 c-41 -13 -74 -50 -85 -97 -5 -21 -9 -93 -9 -160 0 -97 3
-125 16 -137 16 -17 33 -20 58 -10 14 5 16 28 16 148 0 170 7 189 73 184 l42
-3 3 -158 3 -158 25 -11 c18 -9 30 -9 42 -1 14 8 18 35 22 169 l5 159 38 3
c70 6 77 -9 77 -174 0 -136 1 -144 21 -155 16 -8 28 -8 45 0 24 10 24 13 24
156 0 238 -10 249 -235 252 -82 1 -164 -2 -181 -7z"/>
<path d="M2886 1210 c-72 -22 -96 -71 -96 -195 0 -114 14 -153 64 -184 45 -28
137 -31 185 -7 60 32 72 66 69 198 -3 114 -4 118 -32 147 -44 46 -119 62 -190
41z m123 -96 c17 -22 21 -41 21 -104 0 -98 -17 -125 -79 -125 -65 0 -76 19
-76 126 0 83 2 92 24 110 35 28 85 25 110 -7z"/>
<path d="M3516 1210 c-73 -22 -96 -71 -96 -202 0 -117 15 -154 71 -184 42 -21
136 -21 178 0 60 32 72 66 69 198 -3 114 -4 118 -32 147 -44 46 -119 62 -190
41z m124 -97 c19 -25 21 -38 18 -110 -4 -98 -17 -118 -78 -118 -64 0 -75 19
-75 126 0 83 2 92 24 110 35 29 85 25 111 -8z"/>
<path d="M3873 1209 c-59 -17 -68 -43 -71 -226 l-4 -163 25 -11 c18 -8 30 -8
46 0 20 11 21 19 21 154 0 78 4 149 9 156 5 8 31 17 58 20 41 5 49 10 51 29 2
13 -2 30 -8 38 -14 16 -77 17 -127 3z"/>
<path d="M4093 1205 c-35 -15 -63 -60 -63 -101 0 -30 42 -74 115 -119 59 -36
74 -58 59 -82 -15 -25 -50 -28 -95 -8 -41 19 -66 15 -76 -11 -9 -23 36 -60 87
-74 50 -14 112 1 146 35 18 19 24 35 24 71 0 41 -5 51 -38 83 -21 20 -60 48
-86 64 -37 21 -47 32 -44 50 4 30 60 36 106 11 32 -17 33 -17 53 2 27 27 16
49 -35 74 -49 23 -107 25 -153 5z"/>
</g>
</svg>
