<?xml version="1.0" standalone="no"?>
<!DOCTYPE svg PUBLIC "-//W3C//DTD SVG 20010904//EN"
 "http://www.w3.org/TR/2001/REC-SVG-20010904/DTD/svg10.dtd">
<svg version="1.0" xmlns="http://www.w3.org/2000/svg"
 width="1920.000000pt" height="1080.000000pt" viewBox="0 0 1920.000000 1080.000000"
 preserveAspectRatio="xMidYMid meet">

<g transform="translate(0.000000,1080.000000) scale(0.100000,-0.100000)"
fill="#000000" stroke="none">
<path d="M7405 10186 c-11 -17 -33 -138 -35 -193 0 -2 -7 -3 -15 -3 -11 0 -15
13 -15 53 0 75 -16 127 -40 127 -25 0 -40 -53 -40 -142 0 -36 -18 -224 -40
-417 -22 -193 -40 -352 -40 -354 0 -3 -9 -7 -20 -10 -24 -6 -27 -42 -3 -55 22
-13 11 -79 -17 -99 -24 -17 -25 -31 -4 -55 16 -17 14 -47 -31 -435 -50 -440
-52 -496 -20 -618 28 -106 74 -184 155 -266 80 -81 117 -101 508 -285 l114
-54 -7 -32 c-4 -18 -8 -37 -9 -42 0 -5 103 -56 229 -112 l230 -102 19 -458 18
-459 -190 -675 c-105 -371 -270 -961 -368 -1310 -97 -349 -180 -639 -184 -643
-6 -7 -670 -168 -1515 -367 -362 -85 -498 -141 -592 -243 -65 -70 -81 -112
-105 -272 l-21 -145 -53 0 c-38 0 -53 -4 -58 -16 -12 -30 -7 -269 6 -282 9 -9
75 -12 235 -12 l223 0 0 -68 c0 -40 5 -73 12 -80 9 -9 101 -12 353 -12 l341 0
19 -32 c10 -18 37 -52 58 -75 l40 -43 -767 0 c-504 0 -766 -3 -766 -10 0 -5
-7 -10 -15 -10 -8 0 -14 -5 -13 -11 2 -6 -3 -14 -9 -16 -15 -6 -17 13 -3 22 5
3 10 11 10 16 0 16 -103 6 -118 -11 -11 -13 -12 -13 -10 0 2 10 -7 16 -27 18
-27 2 -28 1 -12 -11 9 -8 17 -18 17 -22 0 -4 -7 -2 -15 5 -28 23 -28 1 0 -25
16 -14 25 -28 22 -32 -11 -11 14 -33 37 -33 21 1 21 1 1 13 -20 12 -27 48 -12
63 9 9 57 -16 57 -30 0 -6 -5 -5 -12 2 -17 17 -28 15 -28 -4 0 -9 9 -18 20
-21 11 -3 20 -9 20 -14 0 -5 5 -9 10 -9 6 0 10 6 10 14 0 8 4 17 9 20 5 4 7
-3 4 -14 -5 -20 2 -20 693 -22 385 -2 3015 -4 5847 -6 l5147 -3 0 66 0 65
-2069 0 -2070 0 27 57 c21 47 27 77 30 155 l4 98 247 2 246 3 23 155 c12 85
20 160 18 167 -3 7 -22 13 -42 13 l-37 0 6 118 c4 64 10 216 13 338 l7 221
-28 52 c-75 137 -257 231 -449 231 -51 0 -55 2 -60 27 -6 30 -292 2042 -425
2988 -45 314 -88 595 -97 625 -73 244 -274 406 -582 467 -62 13 -185 16 -619
20 l-543 5 24 31 c99 134 32 297 -144 352 -158 49 -686 12 -863 -61 -76 -31
-222 -43 -310 -24 -64 13 -123 56 -133 96 -4 15 -12 23 -22 22 -18 -3 -23 23
-36 163 -7 74 -7 75 18 87 37 16 57 53 63 117 l6 57 56 -6 c31 -4 73 -15 93
-26 31 -16 38 -17 48 -5 19 22 4 44 -42 65 -36 16 -66 20 -188 20 -154 0 -225
12 -303 51 -68 35 -121 83 -152 140 -32 60 -42 70 -63 62 -19 -8 -10 -51 22
-102 29 -46 26 -88 -5 -68 -16 10 -24 7 -51 -20 -18 -17 -64 -47 -103 -66
-118 -59 -165 -126 -165 -235 0 -70 13 -112 52 -170 38 -55 133 -120 156 -106
29 19 23 32 -31 68 -79 53 -127 128 -127 202 0 39 22 99 48 128 18 20 101 76
113 76 3 0 9 -19 13 -42 13 -90 49 -234 66 -268 27 -53 54 -72 110 -78 54 -5
51 -2 64 -80 5 -28 2 -35 -13 -39 -14 -4 -20 -17 -23 -53 -7 -67 -30 -100 -71
-100 -17 0 -108 14 -200 32 -138 26 -170 30 -177 19 -16 -26 -312 103 -423
184 -69 52 -87 86 -87 170 0 78 29 406 64 712 20 187 24 203 46 221 23 19 23
20 7 46 -14 21 -15 26 -3 26 22 0 28 31 10 51 -14 15 -16 31 -10 85 4 37 11
74 16 83 20 38 120 123 185 158 38 21 71 46 73 56 6 28 -59 49 -137 45 -61 -3
-66 -1 -69 18 -2 12 20 92 48 179 53 164 59 217 27 223 -29 6 -45 -15 -79
-104 -17 -46 -35 -84 -39 -84 -18 0 -20 25 -9 114 9 71 9 98 0 115 -26 50 -65
3 -96 -119 -25 -101 -34 -95 -34 21 0 99 -7 129 -32 129 -4 0 -15 -11 -23 -24z
m87 -280 c77 -17 128 -41 128 -60 0 -23 -19 -23 -89 1 -51 18 -83 23 -141 21
-69 -3 -75 -1 -75 17 0 15 9 22 35 26 56 10 71 9 142 -5z m103 -144 c0 -8 -20
-24 -45 -35 -55 -27 -86 -82 -96 -169 -4 -38 -12 -62 -21 -65 -34 -13 -36 38
-7 144 15 55 62 119 98 134 30 12 71 6 71 -9z m978 -1454 c-51 -93 -110 -120
-177 -79 -29 18 -82 79 -74 85 7 7 263 52 271 48 4 -2 -5 -26 -20 -54z m2889
-760 c272 -75 441 -240 483 -473 8 -44 128 -874 265 -1845 138 -970 254 -1768
256 -1772 3 -4 49 -8 102 -8 156 0 261 -39 344 -127 80 -86 80 -90 73 -297 -5
-162 -12 -267 -18 -273 -1 -1 -200 -3 -442 -5 l-440 -3 0 25 0 25 430 8 c236
5 431 10 433 11 1 2 -6 25 -16 50 l-18 47 -370 -2 c-665 -6 -609 -7 -612 19
-2 13 3 24 12 28 8 3 222 9 475 12 l460 7 -35 48 -34 47 -560 0 c-511 0 -561
1 -567 16 -16 42 4 44 541 44 468 1 509 2 491 16 -39 31 -143 75 -211 89 -131
27 -663 64 -974 68 l-175 2 -18 -445 c-14 -364 -20 -448 -33 -468 -35 -54 3
-52 -1159 -52 -1151 0 -1124 -1 -1139 47 -3 10 -33 169 -66 353 -89 491 -76
442 -113 435 -18 -3 -108 -16 -202 -30 -855 -129 -1454 -347 -1591 -581 -20
-34 -32 -44 -51 -44 -25 0 -26 1 -20 63 7 93 40 169 103 236 101 110 227 160
1199 476 248 81 455 152 462 158 6 7 210 759 453 1672 243 913 443 1666 445
1673 5 13 65 17 65 5 0 -5 -191 -753 -426 -1664 -235 -911 -424 -1664 -421
-1673 6 -14 53 -16 487 -16 l480 0 137 -75 c76 -41 145 -78 153 -83 9 -6 -36
-11 -120 -16 -284 -14 -1077 -79 -1085 -88 -4 -6 135 -752 145 -776 5 -12 20
-26 32 -30 13 -4 506 -5 1096 -1 976 6 1075 8 1090 23 17 17 24 125 47 724 l8
182 -47 0 -46 0 0 70 0 70 55 0 c41 0 57 4 62 16 3 8 -8 716 -26 1572 -17 856
-32 1602 -32 1657 -2 99 -2 100 23 103 l25 3 6 -133 c3 -73 27 -819 54 -1657
38 -1212 50 -1527 61 -1538 19 -19 904 -19 920 0 14 17 -487 3008 -517 3087
-11 29 -31 70 -45 90 -16 25 -39 96 -65 202 -45 186 -72 253 -136 343 -111
157 -285 253 -498 276 -68 8 -260 10 -572 6 -434 -4 -475 -6 -532 -25 -70 -22
-139 -60 -167 -91 l-19 -21 440 0 c379 0 442 -2 453 -15 10 -12 10 -18 0 -30
-10 -13 -80 -15 -483 -17 l-471 -3 -23 -34 c-13 -19 -23 -38 -23 -42 0 -5 161
-10 358 -11 l357 -3 0 -25 0 -25 -376 -3 -376 -2 -21 -63 c-11 -34 -25 -91
-32 -127 -6 -36 -13 -75 -16 -87 l-4 -23 -505 0 c-278 0 -505 3 -505 6 0 4 20
75 45 158 89 301 111 351 198 444 59 62 98 88 181 119 l61 22 1145 -2 1145 -2
97 -27z m-1902 -775 c0 -5 -43 -174 -97 -377 l-98 -368 -65 -43 c-177 -114
-303 -280 -417 -543 -30 -70 -75 -161 -100 -203 -104 -176 -261 -322 -438
-410 -102 -50 -277 -102 -326 -97 l-27 3 237 840 c131 462 262 922 291 1023
l53 182 493 0 c272 0 494 -3 494 -7z m1663 -150 c4 -87 7 -206 7 -265 0 -100
-1 -106 -20 -101 -42 11 -110 -70 -134 -161 -11 -44 -26 -70 -63 -109 -49 -51
-64 -83 -99 -202 -11 -37 -29 -71 -49 -90 l-30 -30 -3 43 c-2 29 4 59 21 95
14 29 32 74 42 101 10 27 39 73 66 102 36 39 53 70 71 125 17 54 33 83 61 110
24 24 35 42 31 53 -10 27 -40 18 -83 -25 -31 -31 -46 -58 -61 -110 -17 -55
-32 -82 -75 -130 -35 -39 -59 -76 -66 -103 -21 -84 -20 -82 -35 -47 -8 19 -14
42 -14 53 0 23 49 118 61 118 18 0 69 88 89 151 16 53 28 75 55 96 38 30 43
44 22 61 -19 16 -70 -18 -101 -65 -13 -21 -31 -64 -40 -96 -13 -44 -30 -72
-71 -117 -30 -33 -55 -66 -55 -74 0 -22 -17 -28 -39 -16 -29 15 -12 55 54 129
42 47 58 75 71 123 13 44 30 75 57 105 40 43 44 73 11 73 -9 0 -36 -19 -59
-42 -32 -33 -47 -59 -64 -116 -18 -59 -32 -84 -75 -131 -29 -32 -56 -70 -60
-84 -5 -20 -13 -27 -31 -27 -47 0 -20 77 54 155 39 41 54 67 71 124 15 51 31
81 55 106 35 35 44 59 25 70 -22 13 -100 -56 -119 -104 -6 -15 -15 -45 -21
-69 -7 -27 -30 -63 -66 -103 -40 -45 -59 -77 -70 -118 -19 -66 -14 -57 -41
-65 -27 -9 -29 5 -12 84 9 41 23 65 70 117 39 43 62 79 69 106 23 87 32 105
70 141 59 54 34 91 -31 45 -37 -26 -74 -90 -89 -155 -9 -39 -22 -61 -56 -95
-59 -57 -71 -81 -95 -191 -16 -72 -26 -96 -49 -120 -39 -38 -80 -99 -114 -165
l-26 -53 217 -2 c139 -2 217 -7 216 -13 -2 -6 -88 -11 -226 -13 l-222 -2 -38
-84 c-95 -216 -82 -300 56 -341 28 -8 66 -15 84 -15 37 0 38 -2 22 -83 l-12
-57 -48 0 -49 0 0 -76 0 -76 81 73 80 72 69 -68 c47 -47 71 -64 74 -54 2 8 10
32 17 54 18 63 39 99 50 88 6 -6 1 -37 -16 -86 -14 -41 -25 -85 -25 -96 0 -44
-24 -34 -87 34 -35 38 -63 67 -63 65 -2 -12 -39 -1370 -40 -1407 0 -31 -4 -43
-15 -43 -19 0 -19 23 4 830 9 338 16 617 14 619 -1 2 -36 -27 -77 -64 -41 -36
-80 -64 -86 -60 -6 4 -10 48 -10 107 l0 101 -77 -5 c-53 -3 -92 -12 -120 -26
-52 -27 -329 -296 -430 -417 -79 -94 -514 -558 -519 -553 -1 2 139 552 312
1223 173 671 326 1266 341 1323 l25 102 738 0 737 0 6 -157z m368 128 c28 -11
69 -32 90 -47 45 -31 102 -111 124 -174 9 -24 45 -222 82 -439 61 -370 65
-397 50 -421 -66 -105 -92 -186 -126 -398 -11 -67 -25 -141 -32 -164 -17 -64
-62 -148 -108 -200 -44 -49 -51 -75 -24 -85 25 -10 96 75 144 172 34 68 44
106 69 250 31 178 69 316 94 350 9 11 16 15 16 8 0 -14 338 -2027 345 -2060
l5 -23 -414 0 -414 0 -6 93 c-3 50 -8 171 -11 267 -4 151 -2 186 14 256 47
194 110 311 245 452 139 145 187 225 232 381 29 103 29 156 0 156 -16 0 -22
-14 -37 -80 -36 -167 -98 -280 -226 -411 -95 -98 -162 -194 -203 -291 -15 -35
-30 -66 -33 -70 -4 -3 -7 43 -8 103 0 60 -17 622 -38 1249 -20 627 -35 1144
-33 1149 8 14 146 -2 203 -23z m-331 -1888 c15 -741 26 -1351 23 -1355 -2 -5
-17 -8 -33 -8 l-28 0 -5 738 c-3 405 -10 778 -16 828 -23 205 -109 314 -246
314 -51 0 -141 -26 -174 -49 -34 -24 -36 -20 -25 39 5 22 15 35 33 41 67 26
124 115 126 200 1 32 6 64 12 71 14 17 38 78 59 152 12 44 29 72 69 117 36 39
57 72 65 101 18 72 42 118 74 143 17 13 32 22 34 20 2 -2 17 -611 32 -1352z
m-2240 -130 c-177 -664 -322 -1209 -324 -1210 -2 -2 -1030 19 -1034 22 -2 2
228 826 234 836 2 3 56 9 121 12 188 8 367 72 535 190 140 98 335 306 321 342
-10 27 -39 15 -70 -27 -44 -62 -173 -189 -251 -248 -89 -67 -268 -155 -367
-181 -44 -11 -125 -23 -179 -26 -93 -6 -99 -5 -93 12 4 9 19 61 34 115 l26 98
81 12 c219 32 439 143 600 304 113 113 195 242 275 429 77 179 148 294 250
401 50 53 153 138 159 131 2 -2 -141 -547 -318 -1212z m1335 907 c0 -8 -8 -16
-17 -18 -13 -2 -18 3 -18 18 0 15 5 20 18 18 9 -2 17 -10 17 -18z m188 6 c8
-21 -17 -40 -31 -23 -9 10 -8 17 0 25 16 16 25 15 31 -2z m-53 -204 c0 -13
-30 -37 -69 -57 -46 -23 -110 -15 -156 19 -19 15 -35 31 -35 37 0 5 55 9 130
9 72 0 130 -4 130 -8z m-572 -1441 l-33 -252 -70 -34 c-68 -32 -133 -90 -205
-184 l-25 -32 -259 3 -259 3 358 349 359 349 24 -28 24 -28 56 56 c31 31 58
55 59 53 2 -2 -11 -117 -29 -255z m-1483 -530 l180 -6 -370 -119 c-714 -230
-1036 -348 -1136 -416 l-59 -40 -402 0 c-222 0 -562 3 -756 7 -346 6 -352 7
-335 25 36 40 150 98 257 132 61 19 489 125 951 235 l840 200 325 -6 c179 -3
406 -8 505 -12z m2771 -526 c4 -8 1 -22 -6 -30 -19 -22 -388 -22 -396 0 -4 8
-4 22 0 30 8 23 394 22 402 0z m-4249 -184 c-35 -69 -41 -91 -45 -160 l-5 -81
-744 0 -745 0 6 28 c3 15 13 74 21 132 8 58 20 117 26 133 l11 27 758 0 758 0
-41 -79z m692 -318 c-16 -32 -34 -86 -40 -121 l-11 -62 -252 2 -251 3 -3 104
c-1 58 0 111 2 118 4 10 65 13 295 13 l290 0 -30 -57z m5388 19 c-3 -20 -11
-74 -18 -120 l-11 -82 -231 2 -230 3 -18 51 c-18 55 -36 87 -82 147 l-29 37
312 0 312 -1 -5 -37z m-747 -2 c22 -11 40 -24 40 -29 0 -19 -16 -19 -48 1 -45
28 -113 29 -150 1 -15 -11 -38 -39 -51 -62 -26 -48 -49 -44 -31 5 36 93 147
132 240 84z m-5250 -95 l0 -105 -262 0 -263 0 -15 33 -15 32 -355 3 c-195 1
-365 0 -377 -3 -12 -3 -25 -18 -31 -35 l-11 -30 -200 0 -201 0 0 105 0 105
865 0 865 0 0 -105z m929 76 c44 -31 26 -50 -20 -22 -72 44 -166 15 -197 -59
-17 -40 -42 -54 -42 -25 0 40 52 104 100 124 40 17 123 8 159 -18z m4289 -61
c17 -11 32 -27 32 -35 0 -20 -5 -19 -40 7 -24 18 -35 20 -57 12 -26 -9 -32
-19 -50 -83 -3 -10 -7 -11 -15 -3 -17 17 0 79 29 102 32 25 59 25 101 0z
m-4327 -17 c29 -17 39 -43 17 -43 -6 0 -20 7 -29 16 -21 19 -65 22 -81 6 -6
-6 -13 -25 -17 -43 -4 -18 -13 -35 -20 -37 -24 -8 -6 79 19 100 28 23 74 23
111 1z m4342 -125 c27 -36 35 -119 13 -137 -21 -18 -42 -8 -66 31 -20 32 -28
117 -13 132 14 13 46 1 66 -26z m-5969 0 c23 -32 20 -94 -4 -118 -44 -44 -100
-11 -100 60 0 48 24 80 60 80 18 0 34 -8 44 -22z m114 -61 c2 -64 0 -77 -13
-77 -11 0 -15 11 -15 39 0 49 -8 71 -26 71 -19 0 -17 20 4 36 36 28 47 14 50
-69z m1501 73 c22 -11 51 -79 51 -118 0 -40 -14 -56 -42 -49 -42 11 -77 102
-58 152 10 27 21 30 49 15z m-2029 -74 c0 -86 -16 -112 -50 -81 -11 10 -20 13
-20 7 0 -17 -35 -15 -50 3 -6 8 -14 41 -17 75 -5 51 -3 60 11 60 12 0 16 -10
17 -37 0 -21 4 -47 8 -58 8 -19 8 -19 15 3 10 29 22 28 40 -5 15 -27 15 -26
16 40 0 53 3 67 15 67 12 0 15 -15 15 -74z m60 59 c12 -14 15 -14 31 1 26 23
53 14 60 -21 12 -57 10 -115 -5 -115 -14 0 -26 40 -27 89 l0 26 -16 -22 c-16
-23 -43 -31 -43 -13 0 6 -5 10 -11 10 -8 0 -10 -15 -5 -49 4 -32 3 -52 -4 -56
-6 -4 -13 -5 -16 -2 -11 10 -16 79 -10 121 8 48 23 58 46 31z m1654 -41 c3 -9
6 -25 6 -37 1 -37 46 -153 79 -202 17 -25 31 -48 31 -51 0 -2 -190 -4 -421 -4
l-421 0 15 23 c27 42 47 129 47 209 l0 78 329 0 c291 0 330 -2 335 -16z m3110
-54 c33 -93 62 -146 108 -196 l41 -44 -1343 0 c-1274 0 -1342 1 -1335 18 34
78 44 124 45 205 l0 87 1231 -2 1231 -3 22 -65z m1226 46 c0 -48 42 -157 84
-221 l44 -65 -433 0 -434 0 27 58 c21 46 27 76 30 155 l4 97 339 0 339 0 0
-24z m-5757 -11 c-2 -5 -25 -11 -53 -13 -46 -3 -60 4 -43 22 11 11 98 2 96 -9z
m6197 -114 c0 -11 -11 -32 -24 -48 -19 -22 -32 -28 -65 -28 -42 0 -79 24 -67
43 4 7 16 5 35 -6 36 -20 76 -6 91 33 11 30 30 33 30 6z m-4330 -17 c0 -29
-56 -74 -92 -74 -35 1 -68 19 -68 39 0 14 27 15 35 1 3 -5 19 -10 34 -10 28 0
53 20 64 53 8 21 27 14 27 -9z m4420 -1 c0 -9 -9 -36 -21 -60 -51 -105 -198
-125 -280 -37 -18 19 -20 27 -11 36 10 10 16 7 28 -10 36 -51 121 -67 182 -34
34 18 54 44 72 95 11 30 30 37 30 10z m-4346 -60 c-48 -116 -196 -142 -283
-50 -36 39 -15 55 23 18 41 -40 88 -54 137 -41 51 14 86 44 100 88 16 51 20
55 32 43 8 -8 5 -24 -9 -58z m-3019 -103 c3 -5 1 -10 -4 -10 -6 0 -11 5 -11
10 0 6 2 10 4 10 3 0 8 -4 11 -10z"/>
<path d="M8936 5949 c-47 -32 -115 -118 -156 -198 -12 -24 -48 -109 -80 -187
-89 -222 -130 -279 -258 -365 -77 -51 -96 -81 -57 -87 26 -4 126 61 187 121
69 67 107 133 177 307 92 230 160 338 235 377 36 18 46 31 39 50 -8 21 -36 15
-87 -18z"/>
<path d="M5559 2755 c-58 -32 -56 -121 3 -151 60 -31 123 8 123 77 0 67 -68
107 -126 74z"/>
<path d="M6714 2760 c-54 -22 -70 -91 -31 -134 34 -40 77 -43 115 -11 25 21
32 34 32 64 0 60 -63 103 -116 81z"/>
<path d="M5807 2722 c-22 -24 -21 -65 1 -85 40 -36 95 -11 95 43 0 54 -61 81
-96 42z"/>
<path d="M6460 2720 c-11 -11 -20 -29 -20 -40 0 -26 34 -60 60 -60 26 0 60 34
60 60 0 26 -34 60 -60 60 -11 0 -29 -9 -40 -20z"/>
<path d="M6236 2214 c-18 -48 9 -99 39 -74 8 7 15 24 15 39 0 44 -41 70 -54
35z"/>
<path d="M8420 9131 c-90 -29 -141 -60 -205 -125 -66 -66 -100 -128 -116 -209
-7 -41 -6 -54 5 -66 22 -21 42 0 49 54 17 122 123 237 262 285 161 56 312 21
455 -105 129 -112 191 -125 410 -79 152 32 216 28 306 -16 60 -29 86 -53 187
-173 85 -101 145 -115 321 -76 81 18 103 19 148 10 110 -24 186 -95 209 -195
24 -110 -28 -202 -175 -305 -48 -35 -76 -61 -76 -73 0 -34 27 -30 91 15 110
77 156 124 190 192 29 59 31 71 27 139 -6 93 -43 164 -113 217 -89 68 -183 83
-331 53 -92 -19 -165 -14 -202 13 -15 11 -61 60 -103 109 -61 72 -88 96 -143
124 -94 48 -201 53 -369 16 -65 -14 -135 -26 -155 -26 -54 1 -108 29 -187 100
-79 70 -138 103 -222 125 -76 20 -195 18 -263 -4z"/>
<path d="M13912 8839 c-23 -4 -78 -24 -123 -44 -57 -26 -108 -41 -179 -51
-145 -20 -220 -66 -262 -162 -34 -77 -70 -72 591 -70 l586 3 -1 51 c-3 129
-96 229 -251 269 -63 16 -286 19 -361 4z m330 -50 c100 -21 173 -70 209 -141
10 -21 19 -49 19 -63 l0 -25 -535 0 c-388 0 -535 3 -535 11 0 22 76 86 120
101 25 9 81 21 126 26 55 7 105 22 156 46 41 19 97 39 124 44 70 14 254 14
316 1z"/>
<path d="M8899 8774 c-12 -14 -9 -20 16 -40 49 -40 127 -58 222 -50 46 3 120
9 166 12 103 8 159 -6 205 -52 36 -36 59 -43 68 -19 10 25 -34 72 -92 101 -55
27 -56 27 -182 18 -226 -15 -270 -13 -329 19 -62 32 -57 31 -74 11z"/>
<path d="M9733 8545 c-13 -34 79 -94 145 -95 50 0 102 25 102 49 0 20 -4 20
-73 15 -68 -6 -74 -5 -104 20 -35 29 -61 33 -70 11z"/>
<path d="M12518 8410 c-110 -19 -149 -39 -233 -123 -44 -44 -98 -88 -120 -98
-22 -9 -80 -22 -130 -28 -108 -14 -200 -54 -245 -109 -32 -40 -70 -113 -70
-137 0 -13 104 -15 900 -15 713 0 900 3 900 13 -1 23 -37 92 -61 114 -37 34
-92 53 -182 62 -45 4 -97 15 -114 25 -18 9 -59 51 -92 94 -78 103 -115 136
-183 167 -92 42 -243 56 -370 35z"/>
<path d="M9144 8397 c-3 -8 37 -57 93 -114 141 -145 165 -150 392 -73 197 67
239 66 306 -7 29 -31 36 -35 49 -24 23 19 21 26 -20 71 -68 75 -156 78 -348
11 -186 -64 -250 -55 -327 45 -70 91 -130 129 -145 91z"/>
<path d="M8927 8183 c-14 -14 -6 -42 14 -48 29 -10 97 -73 115 -107 14 -28 47
-38 59 -18 16 26 -64 129 -127 161 -40 20 -51 23 -61 12z"/>
<path d="M6692 6729 c-140 -27 -235 -144 -235 -289 2 -163 124 -285 288 -284
147 0 257 91 286 236 39 196 -142 376 -339 337z"/>
<path d="M5715 5336 c-129 -26 -171 -47 -275 -138 -78 -69 -121 -87 -255 -103
-64 -8 -135 -20 -158 -26 -70 -18 -156 -70 -202 -121 -51 -57 -84 -140 -65
-163 11 -13 157 -15 1123 -13 1253 3 1146 -5 1113 82 -39 103 -129 151 -305
165 -63 5 -120 15 -138 25 -17 8 -72 58 -123 110 -99 101 -163 143 -265 171
-83 23 -355 29 -450 11z m428 -60 c102 -28 156 -63 262 -171 109 -111 153
-135 244 -135 71 0 170 -19 211 -40 37 -19 90 -72 90 -91 0 -5 -423 -9 -1071
-9 l-1071 0 25 43 c55 94 169 150 342 168 155 15 207 36 307 124 34 31 80 65
100 76 37 19 128 43 198 52 69 10 305 -2 363 -17z"/>
<path d="M4210 1891 c0 -5 5 -13 10 -16 6 -3 10 -2 10 4 0 5 -4 13 -10 16 -5
3 -10 2 -10 -4z"/>
<path d="M4405 1890 c3 -5 10 -10 16 -10 5 0 9 5 9 10 0 6 -7 10 -16 10 -8 0
-12 -4 -9 -10z"/>
<path d="M4460 1884 c-24 -14 -24 -15 -2 -11 12 3 22 1 22 -4 0 -5 7 -9 15 -9
17 0 18 2 9 24 -7 19 -12 19 -44 0z"/>
<path d="M4539 1887 c5 -5 23 -10 39 -11 17 -1 34 -4 37 -8 8 -8 -43 -24 -62
-20 -7 2 -13 -2 -13 -8 0 -5 7 -10 15 -10 18 0 19 -12 3 -28 -16 -16 -2 -28
16 -13 8 7 12 19 9 27 -9 23 11 16 22 -8 6 -13 19 -24 30 -26 17 -2 16 0 -5
12 -19 12 -21 15 -7 16 9 0 17 4 17 10 0 5 -7 7 -15 4 -8 -4 -15 -2 -15 4 0 5
9 12 20 15 14 4 20 0 20 -11 1 -23 24 -52 42 -52 9 0 21 7 28 15 11 13 14 13
26 -2 12 -17 14 -17 29 -2 25 24 7 83 -26 87 l-24 2 23 -16 c25 -19 30 -39 7
-30 -9 3 -24 -3 -35 -14 -20 -20 -20 -20 -20 6 0 14 4 23 10 19 6 -3 10 1 10
11 0 14 -2 14 -16 3 -13 -10 -17 -10 -25 2 -5 8 -9 20 -9 27 0 6 -7 12 -15 12
-8 0 -15 -4 -15 -10 0 -5 -5 -10 -11 -10 -5 0 -7 5 -4 10 8 12 3 13 -29 0 -14
-5 -26 -6 -26 -2 0 4 -9 8 -20 8 -12 0 -16 -4 -11 -9z"/>
<path d="M4685 1890 c-3 -5 3 -10 14 -10 12 0 21 5 21 10 0 6 -6 10 -14 10 -8
0 -18 -4 -21 -10z"/>
<path d="M4175 1880 c-3 -5 -1 -10 4 -10 6 0 11 5 11 10 0 6 -2 10 -4 10 -3 0
-8 -4 -11 -10z"/>
<path d="M4250 1880 c0 -5 4 -10 9 -10 6 0 13 5 16 10 3 6 -1 10 -9 10 -9 0
-16 -4 -16 -10z"/>
<path d="M4280 1860 c0 -5 5 -10 10 -10 6 0 10 5 10 10 0 6 -4 10 -10 10 -5 0
-10 -4 -10 -10z"/>
<path d="M4370 1850 c0 -5 5 -10 11 -10 5 0 7 5 4 10 -3 6 -8 10 -11 10 -2 0
-4 -4 -4 -10z"/>
<path d="M4315 1840 c3 -5 11 -10 16 -10 6 0 7 5 4 10 -3 6 -11 10 -16 10 -6
0 -7 -4 -4 -10z"/>
<path d="M4456 1844 c7 -3 11 -13 9 -22 -1 -9 0 -11 2 -4 3 6 9 12 14 12 6 0
7 5 4 10 -3 6 -14 10 -23 9 -9 0 -12 -3 -6 -5z"/>
<path d="M4421 1819 c-1 -25 24 -47 37 -34 3 3 0 5 -5 5 -6 0 -16 12 -21 28
l-10 27 -1 -26z"/>
<path d="M4239 1807 c7 -7 14 -8 21 -1 6 6 2 10 -12 11 -16 2 -18 -1 -9 -10z"/>
<path d="M4503 1803 c9 -2 23 -2 30 0 6 3 -1 5 -18 5 -16 0 -22 -2 -12 -5z"/>
<path d="M4248 1643 c6 -2 18 -2 25 0 6 3 1 5 -13 5 -14 0 -19 -2 -12 -5z"/>
<path d="M4353 1616 c-1 -35 -1 -35 23 -19 13 8 24 20 24 27 0 6 -4 4 -10 -4
-10 -16 -12 -14 -27 13 -7 14 -9 11 -10 -17z"/>
<path d="M4408 1643 c6 -2 12 -11 12 -19 0 -8 5 -14 11 -14 5 0 7 5 4 10 -3 6
0 10 7 11 14 0 -21 18 -37 18 -5 -1 -4 -3 3 -6z"/>
<path d="M4543 1635 c0 -8 4 -15 8 -15 4 0 9 7 13 15 3 9 0 15 -8 15 -7 0 -13
-7 -13 -15z"/>
<path d="M4600 1645 c0 -2 9 -9 20 -15 16 -9 18 -8 14 5 -5 13 -34 22 -34 10z"/>
<path d="M4660 1640 c0 -5 5 -10 11 -10 5 0 7 5 4 10 -3 6 -8 10 -11 10 -2 0
-4 -4 -4 -10z"/>
<path d="M4693 1643 c4 -3 -1 -15 -10 -25 -16 -18 -15 -20 5 -41 13 -12 22
-16 22 -9 0 7 -7 15 -15 18 -12 5 -12 9 2 30 19 29 37 32 28 4 -3 -11 -2 -20
4 -20 5 0 3 -14 -6 -31 -14 -29 -16 -29 -34 -13 -24 21 -36 12 -14 -10 25 -25
65 -21 66 7 1 12 2 36 4 52 1 17 -3 33 -9 37 -14 10 -52 10 -43 1z"/>
<path d="M4766 1638 c3 -5 0 -15 -6 -23 -10 -12 -9 -16 4 -21 20 -8 21 -34 1
-34 -18 0 -20 -16 -4 -26 6 -3 15 -1 19 7 7 10 11 10 25 -1 13 -11 21 -11 35
-2 11 7 21 8 25 2 7 -12 185 -10 185 3 0 5 6 4 14 -3 22 -17 211 -17 233 1 9
8 14 9 10 2 -5 -7 9 -12 46 -15 28 -3 2580 -6 5670 -7 l5617 -2 0 66 0 65
-5776 0 c-5497 0 -5776 -1 -5770 -17 6 -17 5 -17 -7 -1 -10 13 -31 16 -100 17
-49 0 -86 -3 -83 -8 3 -5 -1 -12 -10 -15 -23 -9 -62 -7 -68 2 -3 5 8 6 25 4
17 -2 29 0 29 7 0 6 -23 10 -60 10 -34 -1 -57 -5 -54 -11z m29 -8 c3 -5 1 -10
-4 -10 -6 0 -11 5 -11 10 0 6 2 10 4 10 3 0 8 -4 11 -10z m175 0 c0 -5 -5 -10
-11 -10 -5 0 -7 5 -4 10 3 6 8 10 11 10 2 0 4 -4 4 -10z m-21 -21 c13 -11 20
-23 16 -27 -4 -4 -10 -1 -12 6 -3 6 -9 10 -13 7 -5 -3 -7 -12 -3 -20 3 -11 -2
-15 -18 -15 -19 0 -21 2 -9 10 13 8 13 11 1 19 -14 9 -9 41 6 41 4 -1 19 -10
32 -21z m91 7 c0 -23 -16 -27 -17 -5 -1 10 2 19 8 19 5 0 9 -6 9 -14z m-205
-16 c3 -5 2 -10 -4 -10 -5 0 -13 5 -16 10 -3 6 -2 10 4 10 5 0 13 -4 16 -10z
m270 -10 c3 -5 1 -10 -4 -10 -6 0 -11 5 -11 10 0 6 2 10 4 10 3 0 8 -4 11 -10z
m-215 -26 c0 -8 -4 -12 -10 -9 -5 3 -10 10 -10 16 0 5 5 9 10 9 6 0 10 -7 10
-16z m-60 -14 c0 -5 -4 -10 -10 -10 -5 0 -10 5 -10 10 0 6 5 10 10 10 6 0 10
-4 10 -10z"/>
<path d="M4488 1635 c-9 -9 19 -65 32 -65 15 0 12 18 -4 27 -8 4 -15 16 -17
26 -2 11 -7 16 -11 12z"/>
<path d="M4308 1612 c19 -21 27 -20 19 3 -4 8 -13 15 -22 15 -13 0 -12 -3 3
-18z"/>
<path d="M4217 1609 c7 -7 15 -10 18 -7 3 3 -2 9 -12 12 -14 6 -15 5 -6 -5z"/>
<path d="M4456 1611 c-4 -7 -5 -15 -2 -18 9 -9 19 4 14 18 -4 11 -6 11 -12 0z"/>
<path d="M4552 1601 c-10 -6 -10 -10 2 -20 16 -13 29 -2 18 16 -4 7 -13 8 -20
4z"/>
<path d="M4623 1592 c-15 -2 -23 -10 -23 -23 0 -10 0 -22 -1 -26 0 -4 5 -9 12
-12 7 -2 9 1 4 9 -5 8 1 19 16 31 27 20 24 26 -8 21z"/>
<path d="M4377 1561 c-17 -6 -17 -8 -3 -20 13 -11 17 -11 22 3 8 21 4 25 -19
17z"/>
<path d="M4536 1554 c-3 -9 -12 -14 -21 -10 -8 3 -15 1 -15 -4 0 -17 37 -11
44 6 4 9 5 19 2 21 -2 2 -6 -4 -10 -13z"/>
<path d="M4308 1533 c7 -3 16 -2 19 1 4 3 -2 6 -13 5 -11 0 -14 -3 -6 -6z"/>
<path d="M4116 1391 c-4 -5 -2 -12 3 -15 5 -4 12 -2 15 3 4 5 2 12 -3 15 -5 4
-12 2 -15 -3z"/>
<path d="M4168 1393 c7 -3 16 -2 19 1 4 3 -2 6 -13 5 -11 0 -14 -3 -6 -6z"/>
<path d="M4345 1389 c-4 -6 -5 -12 -2 -15 2 -3 7 2 10 11 7 17 1 20 -8 4z"/>
<path d="M4512 1394 c4 -3 0 -13 -8 -21 -14 -15 -11 -33 7 -33 6 0 8 4 4 9 -3
5 1 16 10 24 13 13 13 16 -2 22 -10 3 -14 3 -11 -1z"/>
<path d="M4644 1389 c-23 -8 -42 -29 -27 -29 5 0 14 5 21 12 9 9 13 7 18 -5 8
-22 -6 -44 -17 -26 -6 10 -8 7 -6 -9 2 -29 21 -28 35 3 14 30 26 31 53 4 19
-19 22 -20 39 -4 12 11 20 13 25 6 3 -6 1 -11 -5 -11 -7 0 -9 -8 -5 -22 11
-35 21 -41 39 -23 12 13 20 14 30 6 10 -8 17 -7 26 4 11 13 10 14 -4 9 -9 -3
-16 -1 -16 5 0 6 5 11 10 11 6 0 13 0 18 0 4 0 7 -9 7 -20 1 -24 18 -27 21 -4
3 22 14 31 14 11 0 -11 5 -14 17 -10 11 4 14 3 9 -5 -5 -8 2 -12 21 -12 22 0
25 2 13 10 -9 6 -10 10 -3 10 6 0 20 3 30 7 15 6 16 5 5 -9 -8 -10 -9 -19 -3
-22 5 -4 12 -2 16 4 3 5 11 10 16 10 6 0 8 -3 6 -7 -3 -5 24 -8 58 -9 35 0 62
3 60 7 -6 8 26 22 33 14 3 -3 0 -5 -7 -5 -7 0 -9 -4 -6 -10 4 -6 2067 -9 5730
-10 l5725 0 0 65 0 65 -5779 0 c-4614 0 -5781 -3 -5785 -12 -5 -10 -7 -10 -12
0 -3 7 -26 12 -56 12 -48 0 -50 -1 -46 -25 3 -14 1 -25 -3 -25 -5 0 -9 10 -9
23 0 18 -6 22 -36 24 -30 1 -34 -1 -29 -18 4 -11 2 -19 -4 -19 -6 0 -11 5 -11
10 0 22 -19 8 -22 -17 -2 -14 -10 -28 -18 -31 -12 -4 -13 -2 -2 9 14 16 16 39
2 39 -5 0 -10 -7 -10 -16 0 -14 -2 -14 -16 -3 -9 7 -20 22 -24 34 -9 19 -9 19
-9 -2 -1 -21 -36 -42 -48 -29 -4 3 1 6 9 6 11 0 14 6 11 20 -6 22 -18 26 -28
10 -8 -12 -42 -13 -47 -1 -1 5 -13 5 -24 0z m503 -5 c-3 -3 -12 -4 -19 -1 -8
3 -5 6 6 6 11 1 17 -2 13 -5z m-220 -24 c-1 -10 -3 -17 -6 -15 -2 3 -10 0 -18
-6 -9 -9 -13 -8 -13 0 0 6 5 11 10 11 6 0 10 7 10 15 0 8 4 15 9 15 6 0 9 -9
8 -20z m81 2 c2 -7 -2 -10 -12 -6 -9 3 -16 11 -16 16 0 13 23 5 28 -10z m-23
-32 c3 -5 2 -10 -4 -10 -5 0 -13 5 -16 10 -3 6 -2 10 4 10 5 0 13 -4 16 -10z
m105 -6 c0 -8 -5 -12 -10 -9 -6 4 -8 11 -5 16 9 14 15 11 15 -7z m35 -24 c3
-5 2 -10 -4 -10 -5 0 -13 5 -16 10 -3 6 -2 10 4 10 5 0 13 -4 16 -10z"/>
<path d="M4820 1396 c0 -10 28 -13 41 -5 10 6 7 9 -13 9 -16 0 -28 -2 -28 -4z"/>
<path d="M4460 1366 c0 -12 -5 -16 -15 -12 -21 8 -19 -1 4 -13 22 -12 35 7 20
30 -7 11 -9 10 -9 -5z"/>
<path d="M4546 1371 c-11 -17 2 -30 24 -24 11 3 20 0 20 -6 0 -6 -4 -11 -10
-11 -5 0 -10 -9 -10 -21 0 -12 -4 -17 -11 -14 -6 4 -8 14 -5 22 4 9 1 13 -6
11 -7 -3 -14 -13 -16 -24 -2 -16 4 -19 42 -20 40 -2 43 0 31 13 -17 17 -20 33
-5 33 19 0 10 19 -12 26 -13 4 -26 11 -29 16 -4 6 -9 6 -13 -1z"/>
<path d="M4264 1339 c-3 -6 -1 -16 5 -22 9 -9 11 -8 6 5 -4 11 0 18 12 21 15
4 16 5 1 6 -9 0 -20 -4 -24 -10z"/>
<path d="M4360 1340 c0 -5 5 -10 10 -10 6 0 10 5 10 10 0 6 -4 10 -10 10 -5 0
-10 -4 -10 -10z"/>
<path d="M4160 1316 c7 -7 13 -7 20 0 6 6 3 10 -10 10 -13 0 -16 -4 -10 -10z"/>
<path d="M4347 1301 c-4 -17 -3 -21 5 -13 5 5 8 16 6 23 -3 8 -7 3 -11 -10z"/>
<path d="M4490 1310 c0 -5 -8 -10 -17 -11 -15 0 -15 -2 2 -8 12 -5 23 -4 27 3
11 16 10 26 -2 26 -5 0 -10 -4 -10 -10z"/>
<path d="M4300 1300 c0 -5 5 -10 10 -10 6 0 10 5 10 10 0 6 -4 10 -10 10 -5 0
-10 -4 -10 -10z"/>
<path d="M4695 1300 c-3 -5 1 -10 9 -10 9 0 16 5 16 10 0 6 -4 10 -9 10 -6 0
-13 -4 -16 -10z"/>
<path d="M4740 1302 c0 -12 19 -26 26 -19 2 2 -2 10 -11 17 -9 8 -15 8 -15 2z"/>
</g>
</svg>
